<svg xmlns="http://www.w3.org/2000/svg" xmlns:xlink="http://www.w3.org/1999/xlink" width="19.219" height="19.736" viewBox="0 0 19.219 19.736">
  <defs>
    <clipPath id="clip-path">
      <rect width="19.219" height="19.736" fill="none"/>
    </clipPath>
  </defs>
  <g id="_3d-outlined-shape" data-name="3d-outlined-shape" clip-path="url(#clip-path)">
    <path id="Path_236" data-name="Path 236" d="M10.675.259A1.559,1.559,0,0,0,8.925.28L1.082,5.743A1.558,1.558,0,0,0,.414,7.022v5.886a1.557,1.557,0,0,0,.7,1.3l7.972,5.27a1.558,1.558,0,0,0,1.719,0l8.13-5.371a1.559,1.559,0,0,0,.7-1.3V7.023a1.558,1.558,0,0,0-.7-1.3Zm6.073,6.376-3,2.018L10.925,6.6l-.018-4.031ZM8.869,2.576V6.521L5.981,8.54,3.1,6.609ZM2.311,8.553,4.175,9.8l-1.864,1.3Zm6.607,8.41L3.1,13.062l2.905-2.031,2.911,1.953Zm-1.1-7.193L9.7,8.452,11.89,9.894,9.946,11.2Zm3.159,7.193v-3.98l2.782-1.864,2.995,1.969Zm6.607-5.789L15.6,9.876l1.975-1.324Z" transform="translate(-0.414 0)" fill="#313131"/>
  </g>
</svg>
