<svg xmlns="http://www.w3.org/2000/svg" width="46" height="46" viewBox="0 0 46 46">
  <defs>
    <style>
      .cls-1 {
        fill: #ffffff;
      }
    </style>
  </defs>
  <path id="times-circle-regular" class="cls-1" d="M31,8A23,23,0,1,0,54,31,23,23,0,0,0,31,8Zm0,41.548A18.548,18.548,0,1,1,49.548,31,18.543,18.543,0,0,1,31,49.548Zm9.441-24.317L34.673,31l5.769,5.769a1.114,1.114,0,0,1,0,1.577l-2.1,2.1a1.114,1.114,0,0,1-1.577,0L31,34.673l-5.769,5.769a1.114,1.114,0,0,1-1.577,0l-2.1-2.1a1.114,1.114,0,0,1,0-1.577L27.327,31l-5.769-5.769a1.114,1.114,0,0,1,0-1.577l2.1-2.1a1.114,1.114,0,0,1,1.577,0L31,27.327l5.769-5.769a1.114,1.114,0,0,1,1.577,0l2.1,2.1a1.114,1.114,0,0,1,0,1.577Z" transform="translate(-8 -8)"/>
</svg>
