<svg xmlns="http://www.w3.org/2000/svg" xmlns:xlink="http://www.w3.org/1999/xlink" width="17.852" height="17.414" viewBox="0 0 17.852 17.414">
  <defs>
    <clipPath id="clip-path">
      <rect width="17.851" height="17.414" fill="none"/>
    </clipPath>
  </defs>
  <g id="github-logo" clip-path="url(#clip-path)">
    <path id="Path_235" data-name="Path 235" d="M16.654,9.81a8.887,8.887,0,0,0-3.248-3.248,8.73,8.73,0,0,0-4.48-1.2,8.731,8.731,0,0,0-4.48,1.2A8.886,8.886,0,0,0,1.2,9.81,8.731,8.731,0,0,0,0,14.29a8.674,8.674,0,0,0,1.7,5.247,8.742,8.742,0,0,0,4.4,3.225.52.52,0,0,0,.465-.081.454.454,0,0,0,.151-.349q0-.035-.006-.628t-.006-1.034l-.267.046a3.41,3.41,0,0,1-.645.041,4.914,4.914,0,0,1-.808-.081,1.8,1.8,0,0,1-.779-.348,1.475,1.475,0,0,1-.511-.715l-.116-.267a2.9,2.9,0,0,0-.366-.593,1.4,1.4,0,0,0-.506-.442l-.081-.058a.853.853,0,0,1-.151-.14.638.638,0,0,1-.1-.163q-.035-.082.058-.134a.754.754,0,0,1,.337-.052L3,17.8a1.7,1.7,0,0,1,.575.279,1.876,1.876,0,0,1,.564.6,2.049,2.049,0,0,0,.645.726,1.368,1.368,0,0,0,.761.25,3.305,3.305,0,0,0,.662-.058,2.311,2.311,0,0,0,.523-.174,1.883,1.883,0,0,1,.569-1.2,7.957,7.957,0,0,1-1.191-.209,4.743,4.743,0,0,1-1.092-.453,3.129,3.129,0,0,1-.936-.779,3.742,3.742,0,0,1-.61-1.22,5.8,5.8,0,0,1-.238-1.743,3.39,3.39,0,0,1,.918-2.394A3.124,3.124,0,0,1,4.23,9.06a1.628,1.628,0,0,1,1,.157,6.988,6.988,0,0,1,.97.448q.308.186.494.314a8.393,8.393,0,0,1,4.463,0L11.6,9.7a6.254,6.254,0,0,1,1.069-.511,1.523,1.523,0,0,1,.942-.128,3.094,3.094,0,0,1,.093,2.371,3.39,3.39,0,0,1,.918,2.394,5.868,5.868,0,0,1-.238,1.749,3.6,3.6,0,0,1-.616,1.22,3.249,3.249,0,0,1-.942.773,4.752,4.752,0,0,1-1.093.453,7.949,7.949,0,0,1-1.191.209,2.07,2.07,0,0,1,.6,1.65v2.452a.463.463,0,0,0,.145.349.5.5,0,0,0,.459.081,8.74,8.74,0,0,0,4.4-3.225,8.676,8.676,0,0,0,1.7-5.247A8.738,8.738,0,0,0,16.654,9.81Z" transform="translate(0 -5.365)" fill="#313131"/>
  </g>
</svg>
