<svg xmlns="http://www.w3.org/2000/svg" width="18.021" height="18.021" viewBox="0 0 18.021 18.021"><path d="M9.011,1.6a27.629,27.629,0,0,1,3.6.1,4.644,4.644,0,0,1,1.7.3,3.516,3.516,0,0,1,1.7,1.7,4.644,4.644,0,0,1,.3,1.7c0,.9.1,1.2.1,3.6a27.629,27.629,0,0,1-.1,3.6,4.644,4.644,0,0,1-.3,1.7,3.516,3.516,0,0,1-1.7,1.7,4.644,4.644,0,0,1-1.7.3c-.9,0-1.2.1-3.6.1a27.629,27.629,0,0,1-3.6-.1,4.644,4.644,0,0,1-1.7-.3,3.516,3.516,0,0,1-1.7-1.7,4.644,4.644,0,0,1-.3-1.7c0-.9-.1-1.2-.1-3.6a27.629,27.629,0,0,1,.1-3.6A4.644,4.644,0,0,1,2,3.7a3.6,3.6,0,0,1,.7-1,1.693,1.693,0,0,1,1-.7,4.644,4.644,0,0,1,1.7-.3,27.629,27.629,0,0,1,3.6-.1m0-1.6a29.582,29.582,0,0,0-3.7.1A6.181,6.181,0,0,0,3.1.5a3.919,3.919,0,0,0-1.6,1,3.919,3.919,0,0,0-1,1.6,4.562,4.562,0,0,0-.4,2.2,29.582,29.582,0,0,0-.1,3.7,29.583,29.583,0,0,0,.1,3.7,6.181,6.181,0,0,0,.4,2.2,3.919,3.919,0,0,0,1,1.6,3.919,3.919,0,0,0,1.6,1,6.181,6.181,0,0,0,2.2.4,29.582,29.582,0,0,0,3.7.1,29.582,29.582,0,0,0,3.7-.1,6.181,6.181,0,0,0,2.2-.4,4.2,4.2,0,0,0,2.6-2.6,6.181,6.181,0,0,0,.4-2.2c0-1,.1-1.3.1-3.7a29.582,29.582,0,0,0-.1-3.7,6.181,6.181,0,0,0-.4-2.2,3.919,3.919,0,0,0-1-1.6,3.919,3.919,0,0,0-1.6-1,6.181,6.181,0,0,0-2.2-.4,29.582,29.582,0,0,0-3.7-.1m0,4.405A4.531,4.531,0,0,0,4.405,9.011,4.605,4.605,0,1,0,9.011,4.405m0,7.609a2.95,2.95,0,0,1-3-3,2.95,2.95,0,0,1,3-3,2.95,2.95,0,0,1,3,3,2.95,2.95,0,0,1-3,3M13.816,3.1a1.1,1.1,0,1,0,1.1,1.1,1.111,1.111,0,0,0-1.1-1.1" fill="#313131" fill-rule="evenodd"/></svg>