<svg xmlns="http://www.w3.org/2000/svg" width="17.516" height="16.736" viewBox="0 0 17.516 16.736"><path d="M17.515,19.819v6.476H13.761V20.253c0-1.518-.543-2.554-1.9-2.554a2.054,2.054,0,0,0-1.926,1.373,2.569,2.569,0,0,0-.125.915v6.307H6.053S6.1,16.062,6.053,15H9.808v1.6c-.008.012-.018.025-.025.036h.025V16.6a3.729,3.729,0,0,1,3.384-1.866C15.663,14.736,17.515,16.351,17.515,19.819ZM2.125,9.558a1.957,1.957,0,1,0-.05,3.9H2.1a1.958,1.958,0,1,0,.025-3.9ZM.223,26.295H3.977V15H.223Z" transform="translate(0 -9.558)" fill="#313131"/></svg>