<svg xmlns="http://www.w3.org/2000/svg" width="414.115" height="149.701" viewBox="0 0 414.115 149.701"><g transform="translate(0.115 -1082.303)"><path d="M-24442-18140.312c32.83,0,23.67,87.893,54.047,63.334s36.967-57.125,59.092-63.334,27.2,42.127,47.125,61.355c15.705,15.146,26.295,0,26.295,0s28.625-45.531,49.514-61.355,20.029,45.287,43.281,38.529,13.459,64.221,41.729,50.441,20.434-85.3,43.547-96.719,49.408,63.879,49.408,63.879v84.645H-24442Z" transform="translate(24441.885 19231.541)" fill="#fd5f2b"/><path d="M-24442-18141.859c32.834,0,23.672,81.555,54.057,58.773s22.34-34.645,44.469-40.4,18.836,3.289,43.555,32.578,18.947,20.141,53.152,20.141c14.369,0,19.988-56.41,40.881-71.09s20.033,42.023,43.291,35.748,13.961,71.5,42.236,58.717,22.793-65.5,45.91-76.094,46.563,33.715,46.563,33.715v78.541H-24442Z" transform="translate(24441.885 19243.23)" fill="#f59156"/><path d="M-24442-18144.125c32.836,0,23.674,50.348,54.059,36.285s21.482-32.727,43.613-36.285,19.566,18.523,44.287,36.605,12.4,15.105,46.6,15.105c14.367,0,26.66-42.648,47.555-51.711s20.033,25.941,43.289,22.07,13.963,44.141,42.238,36.246,19.936-56.211,43.055-62.754,49.416,36.59,49.416,36.59v48.488H-24442Z" transform="translate(24441.885 19295.484)" fill="#fa7e3e"/><path d="M-24442-18144.654c32.836,0,23.674,20.629,54.059,14.865s21.482-13.41,43.613-14.865,20.186,1.637,44.908,9.043,18.061,9.1,45.223,4.848,46.793-67.74,63.428-21.846,4.779,9.543,28.035,7.955,14.1,27.129,42.379,23.895,20.424-12.172,43.539-14.852c.369-.043,1.156-.125,1.156-.125l47.775,4.256v19.865H-24442Z" transform="translate(24441.885 19343.613)" fill="#f25302"/><path d="M-24442-18140.312c32.83,0,23.67,87.893,54.047,63.334s36.967-57.125,59.092-63.334,27.2,42.127,47.125,61.355c15.705,15.146,26.295,0,26.295,0s28.625-45.531,49.514-61.355,20.029,45.287,43.281,38.529,13.459,64.221,41.729,50.441,20.434-85.3,43.547-96.719,49.408,63.879,49.408,63.879v84.645H-24442Z" transform="translate(24441.885 19231.541)" fill="#fd5f2b"/><path d="M-24442-18141.859c32.834,0,23.672,81.555,54.057,58.773s22.34-34.645,44.469-40.4,18.836,3.289,43.555,32.578,18.947,20.141,53.152,20.141c14.369,0,19.988-56.41,40.881-71.09s20.033,42.023,43.291,35.748,13.961,71.5,42.236,58.717,22.793-65.5,45.91-76.094,46.563,33.715,46.563,33.715v78.541H-24442Z" transform="translate(24441.885 19243.23)" fill="#f59156"/><path d="M-24442-18144.125c32.836,0,23.674,50.348,54.059,36.285s21.482-32.727,43.613-36.285,19.566,18.523,44.287,36.605,12.4,15.105,46.6,15.105c14.367,0,26.66-42.648,47.555-51.711s20.033,25.941,43.289,22.07,13.963,44.141,42.238,36.246,19.936-56.211,43.055-62.754,49.416,36.59,49.416,36.59v48.488H-24442Z" transform="translate(24441.885 19295.484)" fill="#fa7e3e"/><path d="M-24442-18144.654c32.836,0,23.674,20.629,54.059,14.865s21.482-13.41,43.613-14.865,20.186,1.637,44.908,9.043,18.061,9.1,45.223,4.848,46.793-67.74,63.428-21.846,4.779,9.543,28.035,7.955,14.1,27.129,42.379,23.895,20.424-12.172,43.539-14.852c.369-.043,1.156-.125,1.156-.125l47.775,4.256v19.865H-24442Z" transform="translate(24441.885 19343.613)" fill="#f25302"/></g></svg>